%TF.GenerationSoftware,KiCad,Pcbnew,10.0.3*%
%TF.CreationDate,2026-05-20T06:30:59+02:00*%
%TF.ProjectId,blinky,626c696e-6b79-42e6-9b69-6361645f7063,rev?*%
%TF.SameCoordinates,Original*%
%TF.FileFunction,Legend,Top*%
%TF.FilePolarity,Positive*%
%FSLAX46Y46*%
G04 Gerber Fmt 4.6, Leading zero omitted, Abs format (unit mm)*
G04 Created by KiCad (PCBNEW 10.0.3) date 2026-05-20 06:30:59*
%MOMM*%
%LPD*%
G01*
G04 APERTURE LIST*
%ADD10C,0.600000*%
%ADD11C,0.150000*%
%ADD12C,0.120000*%
%ADD13C,0.127000*%
%ADD14C,0.200000*%
G04 APERTURE END LIST*
D10*
X103601657Y-88390978D02*
X100601657Y-88390978D01*
X103458800Y-87105264D02*
X103601657Y-86676693D01*
X103601657Y-86676693D02*
X103601657Y-85962407D01*
X103601657Y-85962407D02*
X103458800Y-85676693D01*
X103458800Y-85676693D02*
X103315942Y-85533835D01*
X103315942Y-85533835D02*
X103030228Y-85390978D01*
X103030228Y-85390978D02*
X102744514Y-85390978D01*
X102744514Y-85390978D02*
X102458800Y-85533835D01*
X102458800Y-85533835D02*
X102315942Y-85676693D01*
X102315942Y-85676693D02*
X102173085Y-85962407D01*
X102173085Y-85962407D02*
X102030228Y-86533835D01*
X102030228Y-86533835D02*
X101887371Y-86819550D01*
X101887371Y-86819550D02*
X101744514Y-86962407D01*
X101744514Y-86962407D02*
X101458800Y-87105264D01*
X101458800Y-87105264D02*
X101173085Y-87105264D01*
X101173085Y-87105264D02*
X100887371Y-86962407D01*
X100887371Y-86962407D02*
X100744514Y-86819550D01*
X100744514Y-86819550D02*
X100601657Y-86533835D01*
X100601657Y-86533835D02*
X100601657Y-85819550D01*
X100601657Y-85819550D02*
X100744514Y-85390978D01*
X102744514Y-84248121D02*
X102744514Y-82819550D01*
X103601657Y-84533835D02*
X100601657Y-83533835D01*
X100601657Y-83533835D02*
X103601657Y-82533835D01*
X102744514Y-81676692D02*
X102744514Y-80248121D01*
X103601657Y-81962406D02*
X100601657Y-80962406D01*
X100601657Y-80962406D02*
X103601657Y-79962406D01*
X103315942Y-77248120D02*
X103458800Y-77390977D01*
X103458800Y-77390977D02*
X103601657Y-77819549D01*
X103601657Y-77819549D02*
X103601657Y-78105263D01*
X103601657Y-78105263D02*
X103458800Y-78533834D01*
X103458800Y-78533834D02*
X103173085Y-78819549D01*
X103173085Y-78819549D02*
X102887371Y-78962406D01*
X102887371Y-78962406D02*
X102315942Y-79105263D01*
X102315942Y-79105263D02*
X101887371Y-79105263D01*
X101887371Y-79105263D02*
X101315942Y-78962406D01*
X101315942Y-78962406D02*
X101030228Y-78819549D01*
X101030228Y-78819549D02*
X100744514Y-78533834D01*
X100744514Y-78533834D02*
X100601657Y-78105263D01*
X100601657Y-78105263D02*
X100601657Y-77819549D01*
X100601657Y-77819549D02*
X100744514Y-77390977D01*
X100744514Y-77390977D02*
X100887371Y-77248120D01*
D11*
X131261905Y-74454819D02*
X131261905Y-73454819D01*
X131261905Y-73454819D02*
X131500000Y-73454819D01*
X131500000Y-73454819D02*
X131642857Y-73502438D01*
X131642857Y-73502438D02*
X131738095Y-73597676D01*
X131738095Y-73597676D02*
X131785714Y-73692914D01*
X131785714Y-73692914D02*
X131833333Y-73883390D01*
X131833333Y-73883390D02*
X131833333Y-74026247D01*
X131833333Y-74026247D02*
X131785714Y-74216723D01*
X131785714Y-74216723D02*
X131738095Y-74311961D01*
X131738095Y-74311961D02*
X131642857Y-74407200D01*
X131642857Y-74407200D02*
X131500000Y-74454819D01*
X131500000Y-74454819D02*
X131261905Y-74454819D01*
X132309524Y-74454819D02*
X132500000Y-74454819D01*
X132500000Y-74454819D02*
X132595238Y-74407200D01*
X132595238Y-74407200D02*
X132642857Y-74359580D01*
X132642857Y-74359580D02*
X132738095Y-74216723D01*
X132738095Y-74216723D02*
X132785714Y-74026247D01*
X132785714Y-74026247D02*
X132785714Y-73645295D01*
X132785714Y-73645295D02*
X132738095Y-73550057D01*
X132738095Y-73550057D02*
X132690476Y-73502438D01*
X132690476Y-73502438D02*
X132595238Y-73454819D01*
X132595238Y-73454819D02*
X132404762Y-73454819D01*
X132404762Y-73454819D02*
X132309524Y-73502438D01*
X132309524Y-73502438D02*
X132261905Y-73550057D01*
X132261905Y-73550057D02*
X132214286Y-73645295D01*
X132214286Y-73645295D02*
X132214286Y-73883390D01*
X132214286Y-73883390D02*
X132261905Y-73978628D01*
X132261905Y-73978628D02*
X132309524Y-74026247D01*
X132309524Y-74026247D02*
X132404762Y-74073866D01*
X132404762Y-74073866D02*
X132595238Y-74073866D01*
X132595238Y-74073866D02*
X132690476Y-74026247D01*
X132690476Y-74026247D02*
X132738095Y-73978628D01*
X132738095Y-73978628D02*
X132785714Y-73883390D01*
X126954819Y-89238094D02*
X125954819Y-89238094D01*
X125954819Y-89238094D02*
X125954819Y-88999999D01*
X125954819Y-88999999D02*
X126002438Y-88857142D01*
X126002438Y-88857142D02*
X126097676Y-88761904D01*
X126097676Y-88761904D02*
X126192914Y-88714285D01*
X126192914Y-88714285D02*
X126383390Y-88666666D01*
X126383390Y-88666666D02*
X126526247Y-88666666D01*
X126526247Y-88666666D02*
X126716723Y-88714285D01*
X126716723Y-88714285D02*
X126811961Y-88761904D01*
X126811961Y-88761904D02*
X126907200Y-88857142D01*
X126907200Y-88857142D02*
X126954819Y-88999999D01*
X126954819Y-88999999D02*
X126954819Y-89238094D01*
X125954819Y-88333332D02*
X125954819Y-87714285D01*
X125954819Y-87714285D02*
X126335771Y-88047618D01*
X126335771Y-88047618D02*
X126335771Y-87904761D01*
X126335771Y-87904761D02*
X126383390Y-87809523D01*
X126383390Y-87809523D02*
X126431009Y-87761904D01*
X126431009Y-87761904D02*
X126526247Y-87714285D01*
X126526247Y-87714285D02*
X126764342Y-87714285D01*
X126764342Y-87714285D02*
X126859580Y-87761904D01*
X126859580Y-87761904D02*
X126907200Y-87809523D01*
X126907200Y-87809523D02*
X126954819Y-87904761D01*
X126954819Y-87904761D02*
X126954819Y-88190475D01*
X126954819Y-88190475D02*
X126907200Y-88285713D01*
X126907200Y-88285713D02*
X126859580Y-88333332D01*
X115261905Y-75454819D02*
X115261905Y-74454819D01*
X115261905Y-74454819D02*
X115500000Y-74454819D01*
X115500000Y-74454819D02*
X115642857Y-74502438D01*
X115642857Y-74502438D02*
X115738095Y-74597676D01*
X115738095Y-74597676D02*
X115785714Y-74692914D01*
X115785714Y-74692914D02*
X115833333Y-74883390D01*
X115833333Y-74883390D02*
X115833333Y-75026247D01*
X115833333Y-75026247D02*
X115785714Y-75216723D01*
X115785714Y-75216723D02*
X115738095Y-75311961D01*
X115738095Y-75311961D02*
X115642857Y-75407200D01*
X115642857Y-75407200D02*
X115500000Y-75454819D01*
X115500000Y-75454819D02*
X115261905Y-75454819D01*
X116690476Y-74454819D02*
X116500000Y-74454819D01*
X116500000Y-74454819D02*
X116404762Y-74502438D01*
X116404762Y-74502438D02*
X116357143Y-74550057D01*
X116357143Y-74550057D02*
X116261905Y-74692914D01*
X116261905Y-74692914D02*
X116214286Y-74883390D01*
X116214286Y-74883390D02*
X116214286Y-75264342D01*
X116214286Y-75264342D02*
X116261905Y-75359580D01*
X116261905Y-75359580D02*
X116309524Y-75407200D01*
X116309524Y-75407200D02*
X116404762Y-75454819D01*
X116404762Y-75454819D02*
X116595238Y-75454819D01*
X116595238Y-75454819D02*
X116690476Y-75407200D01*
X116690476Y-75407200D02*
X116738095Y-75359580D01*
X116738095Y-75359580D02*
X116785714Y-75264342D01*
X116785714Y-75264342D02*
X116785714Y-75026247D01*
X116785714Y-75026247D02*
X116738095Y-74931009D01*
X116738095Y-74931009D02*
X116690476Y-74883390D01*
X116690476Y-74883390D02*
X116595238Y-74835771D01*
X116595238Y-74835771D02*
X116404762Y-74835771D01*
X116404762Y-74835771D02*
X116309524Y-74883390D01*
X116309524Y-74883390D02*
X116261905Y-74931009D01*
X116261905Y-74931009D02*
X116214286Y-75026247D01*
X140954819Y-88738094D02*
X139954819Y-88738094D01*
X139954819Y-88738094D02*
X139954819Y-88499999D01*
X139954819Y-88499999D02*
X140002438Y-88357142D01*
X140002438Y-88357142D02*
X140097676Y-88261904D01*
X140097676Y-88261904D02*
X140192914Y-88214285D01*
X140192914Y-88214285D02*
X140383390Y-88166666D01*
X140383390Y-88166666D02*
X140526247Y-88166666D01*
X140526247Y-88166666D02*
X140716723Y-88214285D01*
X140716723Y-88214285D02*
X140811961Y-88261904D01*
X140811961Y-88261904D02*
X140907200Y-88357142D01*
X140907200Y-88357142D02*
X140954819Y-88499999D01*
X140954819Y-88499999D02*
X140954819Y-88738094D01*
X139954819Y-87261904D02*
X139954819Y-87738094D01*
X139954819Y-87738094D02*
X140431009Y-87785713D01*
X140431009Y-87785713D02*
X140383390Y-87738094D01*
X140383390Y-87738094D02*
X140335771Y-87642856D01*
X140335771Y-87642856D02*
X140335771Y-87404761D01*
X140335771Y-87404761D02*
X140383390Y-87309523D01*
X140383390Y-87309523D02*
X140431009Y-87261904D01*
X140431009Y-87261904D02*
X140526247Y-87214285D01*
X140526247Y-87214285D02*
X140764342Y-87214285D01*
X140764342Y-87214285D02*
X140859580Y-87261904D01*
X140859580Y-87261904D02*
X140907200Y-87309523D01*
X140907200Y-87309523D02*
X140954819Y-87404761D01*
X140954819Y-87404761D02*
X140954819Y-87642856D01*
X140954819Y-87642856D02*
X140907200Y-87738094D01*
X140907200Y-87738094D02*
X140859580Y-87785713D01*
X126261905Y-74454819D02*
X126261905Y-73454819D01*
X126261905Y-73454819D02*
X126500000Y-73454819D01*
X126500000Y-73454819D02*
X126642857Y-73502438D01*
X126642857Y-73502438D02*
X126738095Y-73597676D01*
X126738095Y-73597676D02*
X126785714Y-73692914D01*
X126785714Y-73692914D02*
X126833333Y-73883390D01*
X126833333Y-73883390D02*
X126833333Y-74026247D01*
X126833333Y-74026247D02*
X126785714Y-74216723D01*
X126785714Y-74216723D02*
X126738095Y-74311961D01*
X126738095Y-74311961D02*
X126642857Y-74407200D01*
X126642857Y-74407200D02*
X126500000Y-74454819D01*
X126500000Y-74454819D02*
X126261905Y-74454819D01*
X127404762Y-73883390D02*
X127309524Y-73835771D01*
X127309524Y-73835771D02*
X127261905Y-73788152D01*
X127261905Y-73788152D02*
X127214286Y-73692914D01*
X127214286Y-73692914D02*
X127214286Y-73645295D01*
X127214286Y-73645295D02*
X127261905Y-73550057D01*
X127261905Y-73550057D02*
X127309524Y-73502438D01*
X127309524Y-73502438D02*
X127404762Y-73454819D01*
X127404762Y-73454819D02*
X127595238Y-73454819D01*
X127595238Y-73454819D02*
X127690476Y-73502438D01*
X127690476Y-73502438D02*
X127738095Y-73550057D01*
X127738095Y-73550057D02*
X127785714Y-73645295D01*
X127785714Y-73645295D02*
X127785714Y-73692914D01*
X127785714Y-73692914D02*
X127738095Y-73788152D01*
X127738095Y-73788152D02*
X127690476Y-73835771D01*
X127690476Y-73835771D02*
X127595238Y-73883390D01*
X127595238Y-73883390D02*
X127404762Y-73883390D01*
X127404762Y-73883390D02*
X127309524Y-73931009D01*
X127309524Y-73931009D02*
X127261905Y-73978628D01*
X127261905Y-73978628D02*
X127214286Y-74073866D01*
X127214286Y-74073866D02*
X127214286Y-74264342D01*
X127214286Y-74264342D02*
X127261905Y-74359580D01*
X127261905Y-74359580D02*
X127309524Y-74407200D01*
X127309524Y-74407200D02*
X127404762Y-74454819D01*
X127404762Y-74454819D02*
X127595238Y-74454819D01*
X127595238Y-74454819D02*
X127690476Y-74407200D01*
X127690476Y-74407200D02*
X127738095Y-74359580D01*
X127738095Y-74359580D02*
X127785714Y-74264342D01*
X127785714Y-74264342D02*
X127785714Y-74073866D01*
X127785714Y-74073866D02*
X127738095Y-73978628D01*
X127738095Y-73978628D02*
X127690476Y-73931009D01*
X127690476Y-73931009D02*
X127595238Y-73883390D01*
X121261905Y-74454819D02*
X121261905Y-73454819D01*
X121261905Y-73454819D02*
X121500000Y-73454819D01*
X121500000Y-73454819D02*
X121642857Y-73502438D01*
X121642857Y-73502438D02*
X121738095Y-73597676D01*
X121738095Y-73597676D02*
X121785714Y-73692914D01*
X121785714Y-73692914D02*
X121833333Y-73883390D01*
X121833333Y-73883390D02*
X121833333Y-74026247D01*
X121833333Y-74026247D02*
X121785714Y-74216723D01*
X121785714Y-74216723D02*
X121738095Y-74311961D01*
X121738095Y-74311961D02*
X121642857Y-74407200D01*
X121642857Y-74407200D02*
X121500000Y-74454819D01*
X121500000Y-74454819D02*
X121261905Y-74454819D01*
X122166667Y-73454819D02*
X122833333Y-73454819D01*
X122833333Y-73454819D02*
X122404762Y-74454819D01*
X115954819Y-89238094D02*
X114954819Y-89238094D01*
X114954819Y-89238094D02*
X114954819Y-88999999D01*
X114954819Y-88999999D02*
X115002438Y-88857142D01*
X115002438Y-88857142D02*
X115097676Y-88761904D01*
X115097676Y-88761904D02*
X115192914Y-88714285D01*
X115192914Y-88714285D02*
X115383390Y-88666666D01*
X115383390Y-88666666D02*
X115526247Y-88666666D01*
X115526247Y-88666666D02*
X115716723Y-88714285D01*
X115716723Y-88714285D02*
X115811961Y-88761904D01*
X115811961Y-88761904D02*
X115907200Y-88857142D01*
X115907200Y-88857142D02*
X115954819Y-88999999D01*
X115954819Y-88999999D02*
X115954819Y-89238094D01*
X115954819Y-87714285D02*
X115954819Y-88285713D01*
X115954819Y-87999999D02*
X114954819Y-87999999D01*
X114954819Y-87999999D02*
X115097676Y-88095237D01*
X115097676Y-88095237D02*
X115192914Y-88190475D01*
X115192914Y-88190475D02*
X115240533Y-88285713D01*
X136285714Y-74454819D02*
X136285714Y-73454819D01*
X136285714Y-73454819D02*
X136523809Y-73454819D01*
X136523809Y-73454819D02*
X136666666Y-73502438D01*
X136666666Y-73502438D02*
X136761904Y-73597676D01*
X136761904Y-73597676D02*
X136809523Y-73692914D01*
X136809523Y-73692914D02*
X136857142Y-73883390D01*
X136857142Y-73883390D02*
X136857142Y-74026247D01*
X136857142Y-74026247D02*
X136809523Y-74216723D01*
X136809523Y-74216723D02*
X136761904Y-74311961D01*
X136761904Y-74311961D02*
X136666666Y-74407200D01*
X136666666Y-74407200D02*
X136523809Y-74454819D01*
X136523809Y-74454819D02*
X136285714Y-74454819D01*
X137809523Y-74454819D02*
X137238095Y-74454819D01*
X137523809Y-74454819D02*
X137523809Y-73454819D01*
X137523809Y-73454819D02*
X137428571Y-73597676D01*
X137428571Y-73597676D02*
X137333333Y-73692914D01*
X137333333Y-73692914D02*
X137238095Y-73740533D01*
X138428571Y-73454819D02*
X138523809Y-73454819D01*
X138523809Y-73454819D02*
X138619047Y-73502438D01*
X138619047Y-73502438D02*
X138666666Y-73550057D01*
X138666666Y-73550057D02*
X138714285Y-73645295D01*
X138714285Y-73645295D02*
X138761904Y-73835771D01*
X138761904Y-73835771D02*
X138761904Y-74073866D01*
X138761904Y-74073866D02*
X138714285Y-74264342D01*
X138714285Y-74264342D02*
X138666666Y-74359580D01*
X138666666Y-74359580D02*
X138619047Y-74407200D01*
X138619047Y-74407200D02*
X138523809Y-74454819D01*
X138523809Y-74454819D02*
X138428571Y-74454819D01*
X138428571Y-74454819D02*
X138333333Y-74407200D01*
X138333333Y-74407200D02*
X138285714Y-74359580D01*
X138285714Y-74359580D02*
X138238095Y-74264342D01*
X138238095Y-74264342D02*
X138190476Y-74073866D01*
X138190476Y-74073866D02*
X138190476Y-73835771D01*
X138190476Y-73835771D02*
X138238095Y-73645295D01*
X138238095Y-73645295D02*
X138285714Y-73550057D01*
X138285714Y-73550057D02*
X138333333Y-73502438D01*
X138333333Y-73502438D02*
X138428571Y-73454819D01*
X121454819Y-89238094D02*
X120454819Y-89238094D01*
X120454819Y-89238094D02*
X120454819Y-88999999D01*
X120454819Y-88999999D02*
X120502438Y-88857142D01*
X120502438Y-88857142D02*
X120597676Y-88761904D01*
X120597676Y-88761904D02*
X120692914Y-88714285D01*
X120692914Y-88714285D02*
X120883390Y-88666666D01*
X120883390Y-88666666D02*
X121026247Y-88666666D01*
X121026247Y-88666666D02*
X121216723Y-88714285D01*
X121216723Y-88714285D02*
X121311961Y-88761904D01*
X121311961Y-88761904D02*
X121407200Y-88857142D01*
X121407200Y-88857142D02*
X121454819Y-88999999D01*
X121454819Y-88999999D02*
X121454819Y-89238094D01*
X120550057Y-88285713D02*
X120502438Y-88238094D01*
X120502438Y-88238094D02*
X120454819Y-88142856D01*
X120454819Y-88142856D02*
X120454819Y-87904761D01*
X120454819Y-87904761D02*
X120502438Y-87809523D01*
X120502438Y-87809523D02*
X120550057Y-87761904D01*
X120550057Y-87761904D02*
X120645295Y-87714285D01*
X120645295Y-87714285D02*
X120740533Y-87714285D01*
X120740533Y-87714285D02*
X120883390Y-87761904D01*
X120883390Y-87761904D02*
X121454819Y-88333332D01*
X121454819Y-88333332D02*
X121454819Y-87714285D01*
X134454819Y-89238094D02*
X133454819Y-89238094D01*
X133454819Y-89238094D02*
X133454819Y-88999999D01*
X133454819Y-88999999D02*
X133502438Y-88857142D01*
X133502438Y-88857142D02*
X133597676Y-88761904D01*
X133597676Y-88761904D02*
X133692914Y-88714285D01*
X133692914Y-88714285D02*
X133883390Y-88666666D01*
X133883390Y-88666666D02*
X134026247Y-88666666D01*
X134026247Y-88666666D02*
X134216723Y-88714285D01*
X134216723Y-88714285D02*
X134311961Y-88761904D01*
X134311961Y-88761904D02*
X134407200Y-88857142D01*
X134407200Y-88857142D02*
X134454819Y-88999999D01*
X134454819Y-88999999D02*
X134454819Y-89238094D01*
X133788152Y-87809523D02*
X134454819Y-87809523D01*
X133407200Y-88047618D02*
X134121485Y-88285713D01*
X134121485Y-88285713D02*
X134121485Y-87666666D01*
X149238095Y-88454819D02*
X149238095Y-89264342D01*
X149238095Y-89264342D02*
X149285714Y-89359580D01*
X149285714Y-89359580D02*
X149333333Y-89407200D01*
X149333333Y-89407200D02*
X149428571Y-89454819D01*
X149428571Y-89454819D02*
X149619047Y-89454819D01*
X149619047Y-89454819D02*
X149714285Y-89407200D01*
X149714285Y-89407200D02*
X149761904Y-89359580D01*
X149761904Y-89359580D02*
X149809523Y-89264342D01*
X149809523Y-89264342D02*
X149809523Y-88454819D01*
X150238095Y-88550057D02*
X150285714Y-88502438D01*
X150285714Y-88502438D02*
X150380952Y-88454819D01*
X150380952Y-88454819D02*
X150619047Y-88454819D01*
X150619047Y-88454819D02*
X150714285Y-88502438D01*
X150714285Y-88502438D02*
X150761904Y-88550057D01*
X150761904Y-88550057D02*
X150809523Y-88645295D01*
X150809523Y-88645295D02*
X150809523Y-88740533D01*
X150809523Y-88740533D02*
X150761904Y-88883390D01*
X150761904Y-88883390D02*
X150190476Y-89454819D01*
X150190476Y-89454819D02*
X150809523Y-89454819D01*
X133333333Y-102324819D02*
X133000000Y-101848628D01*
X132761905Y-102324819D02*
X132761905Y-101324819D01*
X132761905Y-101324819D02*
X133142857Y-101324819D01*
X133142857Y-101324819D02*
X133238095Y-101372438D01*
X133238095Y-101372438D02*
X133285714Y-101420057D01*
X133285714Y-101420057D02*
X133333333Y-101515295D01*
X133333333Y-101515295D02*
X133333333Y-101658152D01*
X133333333Y-101658152D02*
X133285714Y-101753390D01*
X133285714Y-101753390D02*
X133238095Y-101801009D01*
X133238095Y-101801009D02*
X133142857Y-101848628D01*
X133142857Y-101848628D02*
X132761905Y-101848628D01*
X133714286Y-101420057D02*
X133761905Y-101372438D01*
X133761905Y-101372438D02*
X133857143Y-101324819D01*
X133857143Y-101324819D02*
X134095238Y-101324819D01*
X134095238Y-101324819D02*
X134190476Y-101372438D01*
X134190476Y-101372438D02*
X134238095Y-101420057D01*
X134238095Y-101420057D02*
X134285714Y-101515295D01*
X134285714Y-101515295D02*
X134285714Y-101610533D01*
X134285714Y-101610533D02*
X134238095Y-101753390D01*
X134238095Y-101753390D02*
X133666667Y-102324819D01*
X133666667Y-102324819D02*
X134285714Y-102324819D01*
X117709580Y-99136666D02*
X117757200Y-99184285D01*
X117757200Y-99184285D02*
X117804819Y-99327142D01*
X117804819Y-99327142D02*
X117804819Y-99422380D01*
X117804819Y-99422380D02*
X117757200Y-99565237D01*
X117757200Y-99565237D02*
X117661961Y-99660475D01*
X117661961Y-99660475D02*
X117566723Y-99708094D01*
X117566723Y-99708094D02*
X117376247Y-99755713D01*
X117376247Y-99755713D02*
X117233390Y-99755713D01*
X117233390Y-99755713D02*
X117042914Y-99708094D01*
X117042914Y-99708094D02*
X116947676Y-99660475D01*
X116947676Y-99660475D02*
X116852438Y-99565237D01*
X116852438Y-99565237D02*
X116804819Y-99422380D01*
X116804819Y-99422380D02*
X116804819Y-99327142D01*
X116804819Y-99327142D02*
X116852438Y-99184285D01*
X116852438Y-99184285D02*
X116900057Y-99136666D01*
X116900057Y-98755713D02*
X116852438Y-98708094D01*
X116852438Y-98708094D02*
X116804819Y-98612856D01*
X116804819Y-98612856D02*
X116804819Y-98374761D01*
X116804819Y-98374761D02*
X116852438Y-98279523D01*
X116852438Y-98279523D02*
X116900057Y-98231904D01*
X116900057Y-98231904D02*
X116995295Y-98184285D01*
X116995295Y-98184285D02*
X117090533Y-98184285D01*
X117090533Y-98184285D02*
X117233390Y-98231904D01*
X117233390Y-98231904D02*
X117804819Y-98803332D01*
X117804819Y-98803332D02*
X117804819Y-98184285D01*
X119833333Y-120609580D02*
X119785714Y-120657200D01*
X119785714Y-120657200D02*
X119642857Y-120704819D01*
X119642857Y-120704819D02*
X119547619Y-120704819D01*
X119547619Y-120704819D02*
X119404762Y-120657200D01*
X119404762Y-120657200D02*
X119309524Y-120561961D01*
X119309524Y-120561961D02*
X119261905Y-120466723D01*
X119261905Y-120466723D02*
X119214286Y-120276247D01*
X119214286Y-120276247D02*
X119214286Y-120133390D01*
X119214286Y-120133390D02*
X119261905Y-119942914D01*
X119261905Y-119942914D02*
X119309524Y-119847676D01*
X119309524Y-119847676D02*
X119404762Y-119752438D01*
X119404762Y-119752438D02*
X119547619Y-119704819D01*
X119547619Y-119704819D02*
X119642857Y-119704819D01*
X119642857Y-119704819D02*
X119785714Y-119752438D01*
X119785714Y-119752438D02*
X119833333Y-119800057D01*
X120785714Y-120704819D02*
X120214286Y-120704819D01*
X120500000Y-120704819D02*
X120500000Y-119704819D01*
X120500000Y-119704819D02*
X120404762Y-119847676D01*
X120404762Y-119847676D02*
X120309524Y-119942914D01*
X120309524Y-119942914D02*
X120214286Y-119990533D01*
X125778095Y-114454819D02*
X125778095Y-115264342D01*
X125778095Y-115264342D02*
X125825714Y-115359580D01*
X125825714Y-115359580D02*
X125873333Y-115407200D01*
X125873333Y-115407200D02*
X125968571Y-115454819D01*
X125968571Y-115454819D02*
X126159047Y-115454819D01*
X126159047Y-115454819D02*
X126254285Y-115407200D01*
X126254285Y-115407200D02*
X126301904Y-115359580D01*
X126301904Y-115359580D02*
X126349523Y-115264342D01*
X126349523Y-115264342D02*
X126349523Y-114454819D01*
X127349523Y-115454819D02*
X126778095Y-115454819D01*
X127063809Y-115454819D02*
X127063809Y-114454819D01*
X127063809Y-114454819D02*
X126968571Y-114597676D01*
X126968571Y-114597676D02*
X126873333Y-114692914D01*
X126873333Y-114692914D02*
X126778095Y-114740533D01*
X142166666Y-116454819D02*
X142166666Y-117169104D01*
X142166666Y-117169104D02*
X142119047Y-117311961D01*
X142119047Y-117311961D02*
X142023809Y-117407200D01*
X142023809Y-117407200D02*
X141880952Y-117454819D01*
X141880952Y-117454819D02*
X141785714Y-117454819D01*
X142595238Y-116550057D02*
X142642857Y-116502438D01*
X142642857Y-116502438D02*
X142738095Y-116454819D01*
X142738095Y-116454819D02*
X142976190Y-116454819D01*
X142976190Y-116454819D02*
X143071428Y-116502438D01*
X143071428Y-116502438D02*
X143119047Y-116550057D01*
X143119047Y-116550057D02*
X143166666Y-116645295D01*
X143166666Y-116645295D02*
X143166666Y-116740533D01*
X143166666Y-116740533D02*
X143119047Y-116883390D01*
X143119047Y-116883390D02*
X142547619Y-117454819D01*
X142547619Y-117454819D02*
X143166666Y-117454819D01*
X158454819Y-118803333D02*
X159169104Y-118803333D01*
X159169104Y-118803333D02*
X159311961Y-118850952D01*
X159311961Y-118850952D02*
X159407200Y-118946190D01*
X159407200Y-118946190D02*
X159454819Y-119089047D01*
X159454819Y-119089047D02*
X159454819Y-119184285D01*
X159454819Y-117803333D02*
X159454819Y-118374761D01*
X159454819Y-118089047D02*
X158454819Y-118089047D01*
X158454819Y-118089047D02*
X158597676Y-118184285D01*
X158597676Y-118184285D02*
X158692914Y-118279523D01*
X158692914Y-118279523D02*
X158740533Y-118374761D01*
X98804819Y-101685238D02*
X98328628Y-102018571D01*
X98804819Y-102256666D02*
X97804819Y-102256666D01*
X97804819Y-102256666D02*
X97804819Y-101875714D01*
X97804819Y-101875714D02*
X97852438Y-101780476D01*
X97852438Y-101780476D02*
X97900057Y-101732857D01*
X97900057Y-101732857D02*
X97995295Y-101685238D01*
X97995295Y-101685238D02*
X98138152Y-101685238D01*
X98138152Y-101685238D02*
X98233390Y-101732857D01*
X98233390Y-101732857D02*
X98281009Y-101780476D01*
X98281009Y-101780476D02*
X98328628Y-101875714D01*
X98328628Y-101875714D02*
X98328628Y-102256666D01*
X97804819Y-101399523D02*
X98804819Y-101066190D01*
X98804819Y-101066190D02*
X97804819Y-100732857D01*
X98804819Y-99875714D02*
X98804819Y-100447142D01*
X98804819Y-100161428D02*
X97804819Y-100161428D01*
X97804819Y-100161428D02*
X97947676Y-100256666D01*
X97947676Y-100256666D02*
X98042914Y-100351904D01*
X98042914Y-100351904D02*
X98090533Y-100447142D01*
X99934819Y-113136666D02*
X99458628Y-113469999D01*
X99934819Y-113708094D02*
X98934819Y-113708094D01*
X98934819Y-113708094D02*
X98934819Y-113327142D01*
X98934819Y-113327142D02*
X98982438Y-113231904D01*
X98982438Y-113231904D02*
X99030057Y-113184285D01*
X99030057Y-113184285D02*
X99125295Y-113136666D01*
X99125295Y-113136666D02*
X99268152Y-113136666D01*
X99268152Y-113136666D02*
X99363390Y-113184285D01*
X99363390Y-113184285D02*
X99411009Y-113231904D01*
X99411009Y-113231904D02*
X99458628Y-113327142D01*
X99458628Y-113327142D02*
X99458628Y-113708094D01*
X99934819Y-112184285D02*
X99934819Y-112755713D01*
X99934819Y-112469999D02*
X98934819Y-112469999D01*
X98934819Y-112469999D02*
X99077676Y-112565237D01*
X99077676Y-112565237D02*
X99172914Y-112660475D01*
X99172914Y-112660475D02*
X99220533Y-112755713D01*
%TO.C,D9*%
D12*
X130794000Y-80400000D02*
X130950000Y-80400000D01*
X133110000Y-80400000D02*
X133266000Y-80400000D01*
X130794484Y-80400000D02*
G75*
G02*
X130950000Y-77168563I1235516J1560000D01*
G01*
X130950000Y-79880961D02*
G75*
G02*
X130950000Y-77799039I1080000J1040961D01*
G01*
X133110000Y-77799039D02*
G75*
G02*
X133110000Y-79880961I-1080000J-1040961D01*
G01*
X133110000Y-77168563D02*
G75*
G02*
X133265516Y-80400000I-1080000J-1671437D01*
G01*
%TO.C,D3*%
X125324000Y-86290000D02*
X125480000Y-86290000D01*
X127640000Y-86290000D02*
X127796000Y-86290000D01*
X125324484Y-86290000D02*
G75*
G02*
X125480000Y-83058563I1235516J1560000D01*
G01*
X125480000Y-85770961D02*
G75*
G02*
X125480000Y-83689039I1080000J1040961D01*
G01*
X127640000Y-83689039D02*
G75*
G02*
X127640000Y-85770961I-1080000J-1040961D01*
G01*
X127640000Y-83058563D02*
G75*
G02*
X127795516Y-86290000I-1080000J-1671437D01*
G01*
%TO.C,D6*%
X116700000Y-77168563D02*
G75*
G02*
X116855516Y-80400000I-1080000J-1671437D01*
G01*
X116700000Y-77799039D02*
G75*
G02*
X116700000Y-79880961I-1080000J-1040961D01*
G01*
X114540000Y-79880961D02*
G75*
G02*
X114540000Y-77799039I1080000J1040961D01*
G01*
X114384484Y-80400000D02*
G75*
G02*
X114540000Y-77168563I1235516J1560000D01*
G01*
X116700000Y-80400000D02*
X116856000Y-80400000D01*
X114384000Y-80400000D02*
X114540000Y-80400000D01*
%TO.C,D5*%
X136264000Y-86290000D02*
X136420000Y-86290000D01*
X138580000Y-86290000D02*
X138736000Y-86290000D01*
X136264484Y-86290000D02*
G75*
G02*
X136420000Y-83058563I1235516J1560000D01*
G01*
X136420000Y-85770961D02*
G75*
G02*
X136420000Y-83689039I1080000J1040961D01*
G01*
X138580000Y-83689039D02*
G75*
G02*
X138580000Y-85770961I-1080000J-1040961D01*
G01*
X138580000Y-83058563D02*
G75*
G02*
X138735516Y-86290000I-1080000J-1671437D01*
G01*
%TO.C,D8*%
X127640000Y-77168563D02*
G75*
G02*
X127795516Y-80400000I-1080000J-1671437D01*
G01*
X127640000Y-77799039D02*
G75*
G02*
X127640000Y-79880961I-1080000J-1040961D01*
G01*
X125480000Y-79880961D02*
G75*
G02*
X125480000Y-77799039I1080000J1040961D01*
G01*
X125324484Y-80400000D02*
G75*
G02*
X125480000Y-77168563I1235516J1560000D01*
G01*
X127640000Y-80400000D02*
X127796000Y-80400000D01*
X125324000Y-80400000D02*
X125480000Y-80400000D01*
%TO.C,D7*%
X122170000Y-77168563D02*
G75*
G02*
X122325516Y-80400000I-1080000J-1671437D01*
G01*
X122170000Y-77799039D02*
G75*
G02*
X122170000Y-79880961I-1080000J-1040961D01*
G01*
X120010000Y-79880961D02*
G75*
G02*
X120010000Y-77799039I1080000J1040961D01*
G01*
X119854484Y-80400000D02*
G75*
G02*
X120010000Y-77168563I1235516J1560000D01*
G01*
X122170000Y-80400000D02*
X122326000Y-80400000D01*
X119854000Y-80400000D02*
X120010000Y-80400000D01*
%TO.C,D1*%
X116700000Y-83058563D02*
G75*
G02*
X116855516Y-86290000I-1080000J-1671437D01*
G01*
X116700000Y-83689039D02*
G75*
G02*
X116700000Y-85770961I-1080000J-1040961D01*
G01*
X114540000Y-85770961D02*
G75*
G02*
X114540000Y-83689039I1080000J1040961D01*
G01*
X114384484Y-86290000D02*
G75*
G02*
X114540000Y-83058563I1235516J1560000D01*
G01*
X116700000Y-86290000D02*
X116856000Y-86290000D01*
X114384000Y-86290000D02*
X114540000Y-86290000D01*
%TO.C,D10*%
X138580000Y-77168563D02*
G75*
G02*
X138735516Y-80400000I-1080000J-1671437D01*
G01*
X138580000Y-77799039D02*
G75*
G02*
X138580000Y-79880961I-1080000J-1040961D01*
G01*
X136420000Y-79880961D02*
G75*
G02*
X136420000Y-77799039I1080000J1040961D01*
G01*
X136264484Y-80400000D02*
G75*
G02*
X136420000Y-77168563I1235516J1560000D01*
G01*
X138580000Y-80400000D02*
X138736000Y-80400000D01*
X136264000Y-80400000D02*
X136420000Y-80400000D01*
%TO.C,D2*%
X119854000Y-86290000D02*
X120010000Y-86290000D01*
X122170000Y-86290000D02*
X122326000Y-86290000D01*
X119854484Y-86290000D02*
G75*
G02*
X120010000Y-83058563I1235516J1560000D01*
G01*
X120010000Y-85770961D02*
G75*
G02*
X120010000Y-83689039I1080000J1040961D01*
G01*
X122170000Y-83689039D02*
G75*
G02*
X122170000Y-85770961I-1080000J-1040961D01*
G01*
X122170000Y-83058563D02*
G75*
G02*
X122325516Y-86290000I-1080000J-1671437D01*
G01*
%TO.C,D4*%
X133110000Y-83058563D02*
G75*
G02*
X133265516Y-86290000I-1080000J-1671437D01*
G01*
X133110000Y-83689039D02*
G75*
G02*
X133110000Y-85770961I-1080000J-1040961D01*
G01*
X130950000Y-85770961D02*
G75*
G02*
X130950000Y-83689039I1080000J1040961D01*
G01*
X130794484Y-86290000D02*
G75*
G02*
X130950000Y-83058563I1235516J1560000D01*
G01*
X133110000Y-86290000D02*
X133266000Y-86290000D01*
X130794000Y-86290000D02*
X130950000Y-86290000D01*
%TO.C,U2*%
D13*
X149295000Y-109625000D02*
X155645000Y-109625000D01*
X149295000Y-90075000D02*
X155645000Y-90075000D01*
D14*
X147535000Y-90960000D02*
G75*
G02*
X147335000Y-90960000I-100000J0D01*
G01*
X147335000Y-90960000D02*
G75*
G02*
X147535000Y-90960000I100000J0D01*
G01*
%TO.C,R2*%
D12*
X130230000Y-98130000D02*
X130230000Y-98460000D01*
X130230000Y-100870000D02*
X130230000Y-100540000D01*
X136770000Y-98130000D02*
X130230000Y-98130000D01*
X136770000Y-98460000D02*
X136770000Y-98130000D01*
X136770000Y-100540000D02*
X136770000Y-100870000D01*
X136770000Y-100870000D02*
X130230000Y-100870000D01*
%TO.C,C2*%
X118480000Y-102840000D02*
X118480000Y-95100000D01*
X121220000Y-102840000D02*
X118480000Y-102840000D01*
X118480000Y-95100000D02*
X121220000Y-95100000D01*
X121220000Y-95100000D02*
X121220000Y-102840000D01*
%TO.C,C1*%
X125120000Y-124000000D02*
G75*
G02*
X119880000Y-124000000I-2620000J0D01*
G01*
X119880000Y-124000000D02*
G75*
G02*
X125120000Y-124000000I2620000J0D01*
G01*
X125100000Y-123717000D02*
X125100000Y-124283000D01*
X125060000Y-123483000D02*
X125060000Y-124517000D01*
X125020000Y-123323000D02*
X125020000Y-124677000D01*
X124980000Y-123195000D02*
X124980000Y-124805000D01*
X124940000Y-123086000D02*
X124940000Y-124914000D01*
X124900000Y-122989000D02*
X124900000Y-125011000D01*
X124860000Y-122902000D02*
X124860000Y-125098000D01*
X124820000Y-122823000D02*
X124820000Y-125177000D01*
X124780000Y-122749000D02*
X124780000Y-125251000D01*
X124740000Y-122681000D02*
X124740000Y-125319000D01*
X124700000Y-122617000D02*
X124700000Y-125383000D01*
X124660000Y-122557000D02*
X124660000Y-125443000D01*
X124620000Y-122501000D02*
X124620000Y-125499000D01*
X124580000Y-122447000D02*
X124580000Y-125553000D01*
X124540000Y-122396000D02*
X124540000Y-125604000D01*
X124500000Y-125040000D02*
X124500000Y-125652000D01*
X124500000Y-122348000D02*
X124500000Y-122960000D01*
X124460000Y-125040000D02*
X124460000Y-125699000D01*
X124460000Y-122301000D02*
X124460000Y-122960000D01*
X124420000Y-125040000D02*
X124420000Y-125743000D01*
X124420000Y-122257000D02*
X124420000Y-122960000D01*
X124380000Y-125040000D02*
X124380000Y-125785000D01*
X124380000Y-122215000D02*
X124380000Y-122960000D01*
X124340000Y-125040000D02*
X124340000Y-125825000D01*
X124340000Y-122175000D02*
X124340000Y-122960000D01*
X124300000Y-125040000D02*
X124300000Y-125864000D01*
X124300000Y-122136000D02*
X124300000Y-122960000D01*
X124260000Y-125040000D02*
X124260000Y-125901000D01*
X124260000Y-122099000D02*
X124260000Y-122960000D01*
X124220000Y-125040000D02*
X124220000Y-125936000D01*
X124220000Y-122064000D02*
X124220000Y-122960000D01*
X124180000Y-125040000D02*
X124180000Y-125970000D01*
X124180000Y-122030000D02*
X124180000Y-122960000D01*
X124140000Y-125040000D02*
X124140000Y-126003000D01*
X124140000Y-121997000D02*
X124140000Y-122960000D01*
X124100000Y-125040000D02*
X124100000Y-126035000D01*
X124100000Y-121965000D02*
X124100000Y-122960000D01*
X124060000Y-125040000D02*
X124060000Y-126065000D01*
X124060000Y-121935000D02*
X124060000Y-122960000D01*
X124020000Y-125040000D02*
X124020000Y-126094000D01*
X124020000Y-121906000D02*
X124020000Y-122960000D01*
X123980000Y-125040000D02*
X123980000Y-126122000D01*
X123980000Y-121878000D02*
X123980000Y-122960000D01*
X123940000Y-125040000D02*
X123940000Y-126149000D01*
X123940000Y-121851000D02*
X123940000Y-122960000D01*
X123900000Y-125040000D02*
X123900000Y-126175000D01*
X123900000Y-121825000D02*
X123900000Y-122960000D01*
X123860000Y-125040000D02*
X123860000Y-126199000D01*
X123860000Y-121801000D02*
X123860000Y-122960000D01*
X123820000Y-125040000D02*
X123820000Y-126223000D01*
X123820000Y-121777000D02*
X123820000Y-122960000D01*
X123780000Y-125040000D02*
X123780000Y-126246000D01*
X123780000Y-121754000D02*
X123780000Y-122960000D01*
X123740000Y-125040000D02*
X123740000Y-126268000D01*
X123740000Y-121732000D02*
X123740000Y-122960000D01*
X123700000Y-125040000D02*
X123700000Y-126289000D01*
X123700000Y-121711000D02*
X123700000Y-122960000D01*
X123660000Y-125040000D02*
X123660000Y-126309000D01*
X123660000Y-121691000D02*
X123660000Y-122960000D01*
X123620000Y-125040000D02*
X123620000Y-126329000D01*
X123620000Y-121671000D02*
X123620000Y-122960000D01*
X123580000Y-125040000D02*
X123580000Y-126347000D01*
X123580000Y-121653000D02*
X123580000Y-122960000D01*
X123540000Y-125040000D02*
X123540000Y-126365000D01*
X123540000Y-121635000D02*
X123540000Y-122960000D01*
X123500000Y-125040000D02*
X123500000Y-126382000D01*
X123500000Y-121618000D02*
X123500000Y-122960000D01*
X123460000Y-125040000D02*
X123460000Y-126398000D01*
X123460000Y-121602000D02*
X123460000Y-122960000D01*
X123420000Y-125040000D02*
X123420000Y-126413000D01*
X123420000Y-121587000D02*
X123420000Y-122960000D01*
X123380000Y-125040000D02*
X123380000Y-126428000D01*
X123380000Y-121572000D02*
X123380000Y-122960000D01*
X123340000Y-125040000D02*
X123340000Y-126442000D01*
X123340000Y-121558000D02*
X123340000Y-122960000D01*
X123300000Y-125040000D02*
X123300000Y-126455000D01*
X123300000Y-121545000D02*
X123300000Y-122960000D01*
X123260000Y-125040000D02*
X123260000Y-126467000D01*
X123260000Y-121533000D02*
X123260000Y-122960000D01*
X123220000Y-125040000D02*
X123220000Y-126479000D01*
X123220000Y-121521000D02*
X123220000Y-122960000D01*
X123180000Y-125040000D02*
X123180000Y-126490000D01*
X123180000Y-121510000D02*
X123180000Y-122960000D01*
X123140000Y-125040000D02*
X123140000Y-126501000D01*
X123140000Y-121499000D02*
X123140000Y-122960000D01*
X123100000Y-125040000D02*
X123100000Y-126510000D01*
X123100000Y-121490000D02*
X123100000Y-122960000D01*
X123060000Y-125040000D02*
X123060000Y-126519000D01*
X123060000Y-121481000D02*
X123060000Y-122960000D01*
X123020000Y-125040000D02*
X123020000Y-126528000D01*
X123020000Y-121472000D02*
X123020000Y-122960000D01*
X122980000Y-125040000D02*
X122980000Y-126536000D01*
X122980000Y-121464000D02*
X122980000Y-122960000D01*
X122940000Y-125040000D02*
X122940000Y-126543000D01*
X122940000Y-121457000D02*
X122940000Y-122960000D01*
X122900000Y-125040000D02*
X122900000Y-126549000D01*
X122900000Y-121451000D02*
X122900000Y-122960000D01*
X122860000Y-125040000D02*
X122860000Y-126555000D01*
X122860000Y-121445000D02*
X122860000Y-122960000D01*
X122820000Y-125040000D02*
X122820000Y-126560000D01*
X122820000Y-121440000D02*
X122820000Y-122960000D01*
X122780000Y-125040000D02*
X122780000Y-126565000D01*
X122780000Y-121435000D02*
X122780000Y-122960000D01*
X122740000Y-125040000D02*
X122740000Y-126569000D01*
X122740000Y-121431000D02*
X122740000Y-122960000D01*
X122700000Y-125040000D02*
X122700000Y-126572000D01*
X122700000Y-121428000D02*
X122700000Y-122960000D01*
X122660000Y-125040000D02*
X122660000Y-126575000D01*
X122660000Y-121425000D02*
X122660000Y-122960000D01*
X122620000Y-125040000D02*
X122620000Y-126577000D01*
X122620000Y-121423000D02*
X122620000Y-122960000D01*
X122580000Y-125040000D02*
X122580000Y-126579000D01*
X122580000Y-121421000D02*
X122580000Y-122960000D01*
X122540000Y-125040000D02*
X122540000Y-126580000D01*
X122540000Y-121420000D02*
X122540000Y-122960000D01*
X122500000Y-125040000D02*
X122500000Y-126580000D01*
X122500000Y-121420000D02*
X122500000Y-122960000D01*
X119945225Y-122275000D02*
X119945225Y-122775000D01*
X119695225Y-122525000D02*
X120195225Y-122525000D01*
%TO.C,U1*%
X125540000Y-117420000D02*
G75*
G02*
X127540000Y-117420000I1000000J0D01*
G01*
X123890000Y-107140000D02*
X123890000Y-117420000D01*
X123890000Y-117420000D02*
X125540000Y-117420000D01*
X127540000Y-117420000D02*
X129190000Y-117420000D01*
X129190000Y-107140000D02*
X123890000Y-107140000D01*
X129190000Y-117420000D02*
X129190000Y-107140000D01*
%TO.C,J2*%
X140230000Y-118740000D02*
X140230000Y-118850000D01*
X137470000Y-118850000D02*
X140230000Y-118850000D01*
X137470000Y-118740000D02*
X140230000Y-118740000D01*
X137470000Y-118740000D02*
X137470000Y-118850000D01*
X137470000Y-117470000D02*
X137470000Y-116090000D01*
X137470000Y-116090000D02*
X138850000Y-116090000D01*
%TO.C,J1*%
X154620000Y-119850000D02*
X151970000Y-119850000D01*
X151970000Y-117090000D02*
X151970000Y-119850000D01*
X154620000Y-117090000D02*
X154620000Y-119850000D01*
X154620000Y-117090000D02*
X151970000Y-117090000D01*
X155890000Y-117090000D02*
X157270000Y-117090000D01*
X157270000Y-117090000D02*
X157270000Y-118470000D01*
%TO.C,RV1*%
X99240000Y-103630000D02*
X98910000Y-103870000D01*
X98910000Y-103390000D01*
X99240000Y-103630000D01*
G36*
X99240000Y-103630000D02*
G01*
X98910000Y-103870000D01*
X98910000Y-103390000D01*
X99240000Y-103630000D01*
G37*
X99240000Y-96130000D02*
X104460000Y-96130000D01*
X99240000Y-103230000D02*
X99240000Y-96130000D01*
X104460000Y-106050000D02*
X104460000Y-96130000D01*
X99240000Y-106050000D02*
X99240000Y-103930000D01*
X99240000Y-106050000D02*
X104460000Y-106050000D01*
%TO.C,R1*%
X100480000Y-116240000D02*
X100480000Y-109700000D01*
X100810000Y-116240000D02*
X100480000Y-116240000D01*
X102890000Y-116240000D02*
X103220000Y-116240000D01*
X103220000Y-116240000D02*
X103220000Y-109700000D01*
X100480000Y-109700000D02*
X100810000Y-109700000D01*
X103220000Y-109700000D02*
X102890000Y-109700000D01*
%TD*%
M02*
