%TF.GenerationSoftware,KiCad,Pcbnew,10.0.3*%
%TF.CreationDate,2026-05-20T06:30:59+02:00*%
%TF.ProjectId,blinky,626c696e-6b79-42e6-9b69-6361645f7063,rev?*%
%TF.SameCoordinates,Original*%
%TF.FileFunction,Soldermask,Top*%
%TF.FilePolarity,Negative*%
%FSLAX46Y46*%
G04 Gerber Fmt 4.6, Leading zero omitted, Abs format (unit mm)*
G04 Created by KiCad (PCBNEW 10.0.3) date 2026-05-20 06:30:59*
%MOMM*%
%LPD*%
G01*
G04 APERTURE LIST*
G04 Aperture macros list*
%AMRoundRect*
0 Rectangle with rounded corners*
0 $1 Rounding radius*
0 $2 $3 $4 $5 $6 $7 $8 $9 X,Y pos of 4 corners*
0 Add a 4 corners polygon primitive as box body*
4,1,4,$2,$3,$4,$5,$6,$7,$8,$9,$2,$3,0*
0 Add four circle primitives for the rounded corners*
1,1,$1+$1,$2,$3*
1,1,$1+$1,$4,$5*
1,1,$1+$1,$6,$7*
1,1,$1+$1,$8,$9*
0 Add four rect primitives between the rounded corners*
20,1,$1+$1,$2,$3,$4,$5,0*
20,1,$1+$1,$4,$5,$6,$7,0*
20,1,$1+$1,$6,$7,$8,$9,0*
20,1,$1+$1,$8,$9,$2,$3,0*%
G04 Aperture macros list end*
%ADD10R,1.800000X1.800000*%
%ADD11C,1.800000*%
%ADD12C,1.334000*%
%ADD13RoundRect,0.102000X-0.565000X-0.565000X0.565000X-0.565000X0.565000X0.565000X-0.565000X0.565000X0*%
%ADD14C,1.600000*%
%ADD15C,2.000000*%
%ADD16RoundRect,0.250000X-0.550000X-0.550000X0.550000X-0.550000X0.550000X0.550000X-0.550000X0.550000X0*%
%ADD17RoundRect,0.250000X0.550000X0.550000X-0.550000X0.550000X-0.550000X-0.550000X0.550000X-0.550000X0*%
%ADD18R,1.700000X1.700000*%
%ADD19C,1.700000*%
%ADD20C,1.650000*%
%ADD21RoundRect,0.412500X0.412500X-0.412500X0.412500X0.412500X-0.412500X0.412500X-0.412500X-0.412500X0*%
G04 APERTURE END LIST*
D10*
%TO.C,D9*%
X132030000Y-80110000D03*
D11*
X132030000Y-77570000D03*
%TD*%
D10*
%TO.C,D3*%
X126560000Y-86000000D03*
D11*
X126560000Y-83460000D03*
%TD*%
%TO.C,D6*%
X115620000Y-77570000D03*
D10*
X115620000Y-80110000D03*
%TD*%
%TO.C,D5*%
X137500000Y-86000000D03*
D11*
X137500000Y-83460000D03*
%TD*%
%TO.C,D8*%
X126560000Y-77570000D03*
D10*
X126560000Y-80110000D03*
%TD*%
D11*
%TO.C,D7*%
X121090000Y-77570000D03*
D10*
X121090000Y-80110000D03*
%TD*%
D11*
%TO.C,D1*%
X115620000Y-83460000D03*
D10*
X115620000Y-86000000D03*
%TD*%
D11*
%TO.C,D10*%
X137500000Y-77570000D03*
D10*
X137500000Y-80110000D03*
%TD*%
%TO.C,D2*%
X121090000Y-86000000D03*
D11*
X121090000Y-83460000D03*
%TD*%
%TO.C,D4*%
X132030000Y-83460000D03*
D10*
X132030000Y-86000000D03*
%TD*%
D12*
%TO.C,U2*%
X156440000Y-90960000D03*
X156440000Y-93500000D03*
X156440000Y-96040000D03*
X156440000Y-98580000D03*
X156440000Y-101120000D03*
X156440000Y-103660000D03*
X156440000Y-106200000D03*
X156440000Y-108740000D03*
X148500000Y-108740000D03*
X148500000Y-106200000D03*
X148500000Y-103660000D03*
X148500000Y-101120000D03*
X148500000Y-98580000D03*
X148500000Y-96040000D03*
X148500000Y-93500000D03*
D13*
X148500000Y-90960000D03*
%TD*%
D14*
%TO.C,R2*%
X129690000Y-99500000D03*
X137310000Y-99500000D03*
%TD*%
D15*
%TO.C,C2*%
X119850000Y-101470000D03*
X119850000Y-96470000D03*
%TD*%
D14*
%TO.C,C1*%
X123500000Y-124000000D03*
D16*
X121500000Y-124000000D03*
%TD*%
D14*
%TO.C,U1*%
X122730000Y-116090000D03*
X122730000Y-113550000D03*
X122730000Y-111010000D03*
X122730000Y-108470000D03*
X130350000Y-108470000D03*
X130350000Y-111010000D03*
X130350000Y-113550000D03*
D17*
X130350000Y-116090000D03*
%TD*%
D18*
%TO.C,J2*%
X138850000Y-117470000D03*
%TD*%
D19*
%TO.C,J1*%
X153350000Y-118470000D03*
D18*
X155890000Y-118470000D03*
%TD*%
D20*
%TO.C,RV1*%
X101850000Y-98550000D03*
X101850000Y-101090000D03*
D21*
X101850000Y-103630000D03*
%TD*%
D14*
%TO.C,R1*%
X101850000Y-116780000D03*
X101850000Y-109160000D03*
%TD*%
M02*
