M48
; DRILL file KiCad 10.0.3 date 2026-05-20T06:31:38
; FORMAT={-:-/ absolute / metric / decimal}
; #@! TF.CreationDate,2026-05-20T06:31:38+02:00
; #@! TF.GenerationSoftware,Kicad,Pcbnew,10.0.3
; #@! TF.FileFunction,Plated,1,2,PTH
FMAT,2
METRIC
; #@! TA.AperFunction,Plated,PTH,ComponentDrill
T1C0.780
; #@! TA.AperFunction,Plated,PTH,ComponentDrill
T2C0.800
; #@! TA.AperFunction,Plated,PTH,ComponentDrill
T3C0.850
; #@! TA.AperFunction,Plated,PTH,ComponentDrill
T4C0.900
; #@! TA.AperFunction,Plated,PTH,ComponentDrill
T5C1.000
%
G90
G05
T1
X148.5Y-90.96
X148.5Y-93.5
X148.5Y-96.04
X148.5Y-98.58
X148.5Y-101.12
X148.5Y-103.66
X148.5Y-106.2
X148.5Y-108.74
X156.44Y-90.96
X156.44Y-93.5
X156.44Y-96.04
X156.44Y-98.58
X156.44Y-101.12
X156.44Y-103.66
X156.44Y-106.2
X156.44Y-108.74
T2
X101.85Y-109.16
X101.85Y-116.78
X121.5Y-124.0
X122.73Y-108.47
X122.73Y-111.01
X122.73Y-113.55
X122.73Y-116.09
X123.5Y-124.0
X129.69Y-99.5
X130.35Y-108.47
X130.35Y-111.01
X130.35Y-113.55
X130.35Y-116.09
X137.31Y-99.5
T3
X101.85Y-98.55
X101.85Y-101.09
X101.85Y-103.63
T4
X115.62Y-77.57
X115.62Y-80.11
X115.62Y-83.46
X115.62Y-86.0
X121.09Y-77.57
X121.09Y-80.11
X121.09Y-83.46
X121.09Y-86.0
X126.56Y-77.57
X126.56Y-80.11
X126.56Y-83.46
X126.56Y-86.0
X132.03Y-77.57
X132.03Y-80.11
X132.03Y-83.46
X132.03Y-86.0
X137.5Y-77.57
X137.5Y-80.11
X137.5Y-83.46
X137.5Y-86.0
T5
X119.85Y-96.47
X119.85Y-101.47
X138.85Y-117.47
X153.35Y-118.47
X155.89Y-118.47
M30
