%TF.GenerationSoftware,KiCad,Pcbnew,10.0.3*%
%TF.CreationDate,2026-05-20T06:30:59+02:00*%
%TF.ProjectId,blinky,626c696e-6b79-42e6-9b69-6361645f7063,rev?*%
%TF.SameCoordinates,Original*%
%TF.FileFunction,Profile,NP*%
%FSLAX46Y46*%
G04 Gerber Fmt 4.6, Leading zero omitted, Abs format (unit mm)*
G04 Created by KiCad (PCBNEW 10.0.3) date 2026-05-20 06:30:59*
%MOMM*%
%LPD*%
G01*
G04 APERTURE LIST*
%TA.AperFunction,Profile*%
%ADD10C,0.200000*%
%TD*%
G04 APERTURE END LIST*
D10*
X161335901Y-56297081D02*
G75*
G02*
X162047684Y-56336025I180166J-3231190D01*
G01*
X162047685Y-56336019D02*
G75*
G02*
X162700555Y-56525880I-474318J-2848452D01*
G01*
X162700552Y-56525887D02*
G75*
G02*
X163375512Y-56881537I-1776185J-4189184D01*
G01*
X166029154Y-63111655D02*
X165575130Y-60712226D01*
X166029154Y-63111655D02*
G75*
G02*
X166289174Y-65823035I-25264587J-3791016D01*
G01*
X165833648Y-71845203D02*
X166239922Y-68423713D01*
X164181569Y-82548409D02*
X164344913Y-81122482D01*
X164137500Y-83405879D02*
G75*
G02*
X164181567Y-82548409I8463567J-5092D01*
G01*
X164226682Y-84917116D02*
G75*
G02*
X164137499Y-83405879I12629285J1503545D01*
G01*
X164506398Y-86757791D02*
X164226682Y-84917116D01*
X165537093Y-90962971D02*
X164948763Y-88807109D01*
X166616890Y-94611865D02*
X166272336Y-93427447D01*
X165011240Y-58975047D02*
G75*
G02*
X165575129Y-60712226I-9474473J-4035524D01*
G01*
X166860600Y-95505059D02*
X166616890Y-94611865D01*
X167812293Y-99971258D02*
G75*
G02*
X168089356Y-103056802I-24228826J-3730813D01*
G01*
X167967703Y-105959421D02*
G75*
G02*
X167452333Y-108814998I-21081436J2330450D01*
G01*
X90606426Y-96479005D02*
X90051876Y-99057837D01*
X167452327Y-108814997D02*
G75*
G02*
X166536417Y-111511537I-17187260J4334026D01*
G01*
X160448514Y-121262971D02*
X163057822Y-117695440D01*
X160448514Y-121262971D02*
G75*
G02*
X156475490Y-125727742I-35398247J27499400D01*
G01*
X147374844Y-132168090D02*
G75*
G02*
X141936566Y-134364953I-18451177J37845819D01*
G01*
X137036007Y-135588376D02*
G75*
G02*
X131683772Y-136221627I-8194040J46320805D01*
G01*
X167129709Y-96562971D02*
G75*
G02*
X167812289Y-99971259I-37608642J-9304400D01*
G01*
X92102601Y-73785927D02*
X92281830Y-74739846D01*
X126208014Y-136243137D02*
G75*
G02*
X120936567Y-135635937I2247653J42698966D01*
G01*
X120936567Y-135635938D02*
G75*
G02*
X117242402Y-134770090I6244000J34953767D01*
G01*
X109932594Y-131845255D02*
G75*
G02*
X106547117Y-129878551I18075073J35011584D01*
G01*
X113535891Y-133491642D02*
G75*
G02*
X109932594Y-131845254I15340476J38340571D01*
G01*
X106547116Y-129878553D02*
G75*
G02*
X103288264Y-127492676I19657051J30267982D01*
G01*
X94688836Y-117547049D02*
X97571914Y-121553629D01*
X92260893Y-113596523D02*
G75*
G02*
X90761828Y-110350139I19303674J10883052D01*
G01*
X92260893Y-113596523D02*
X94688836Y-117547049D01*
X100366728Y-124790286D02*
G75*
G02*
X97571914Y-121553629I28785639J27681015D01*
G01*
X92911278Y-87985260D02*
G75*
G02*
X92450760Y-90043869I-20411278J3485260D01*
G01*
X93190654Y-83362971D02*
X93121446Y-86061919D01*
X93581654Y-57315047D02*
G75*
G02*
X95005566Y-56563356I2242813J-2524024D01*
G01*
X93178085Y-81858429D02*
X93190654Y-83362971D01*
X92876525Y-77923631D02*
X92977047Y-78462971D01*
X131683772Y-136221625D02*
G75*
G02*
X126208014Y-136243140I-2928005J48377954D01*
G01*
X144158868Y-68491024D02*
G75*
G02*
X142266098Y-69908097I-9817301J11140253D01*
G01*
X92442014Y-75593856D02*
X92548376Y-76162971D01*
X92758867Y-77292346D02*
X92876525Y-77923631D01*
X103288264Y-127492676D02*
G75*
G02*
X100366723Y-124790290I21607203J26289905D01*
G01*
X164852395Y-77762971D02*
X165833648Y-71845203D01*
X91928877Y-72862971D02*
X92102601Y-73785927D01*
X166289176Y-65823035D02*
G75*
G02*
X166239927Y-68423713I-21242709J-898536D01*
G01*
X95005569Y-56563367D02*
G75*
G02*
X96822120Y-56425187I1313098J-5252804D01*
G01*
X91928877Y-72862971D02*
G75*
G02*
X91562379Y-70079814I24960390J4702600D01*
G01*
X165074551Y-114460830D02*
G75*
G02*
X163057823Y-117695441I-36917484J20771459D01*
G01*
X166536421Y-111511539D02*
G75*
G02*
X165074553Y-114460831I-28887754J12481768D01*
G01*
X159431240Y-56674453D02*
G75*
G02*
X160478874Y-56399164I2341927J-6781318D01*
G01*
X166272336Y-93427447D02*
X165537093Y-90962971D01*
X120598313Y-70767833D02*
X119743827Y-70824377D01*
X91374930Y-66394836D02*
X91562377Y-70079814D01*
X142266098Y-69908097D02*
G75*
G02*
X140730475Y-70593893I-3150431J4992226D01*
G01*
X91357573Y-62852032D02*
G75*
G02*
X91621528Y-61046265I7095094J-114939D01*
G01*
X93063359Y-79148260D02*
X93132052Y-80397346D01*
X91621541Y-61046269D02*
G75*
G02*
X92480464Y-58774074I13408326J-3770102D01*
G01*
X160478874Y-56399165D02*
G75*
G02*
X161335901Y-56297083I1239693J-6759206D01*
G01*
X98686604Y-56869793D02*
G75*
G02*
X99720040Y-57339725I-3743637J-9603978D01*
G01*
X113532426Y-68807927D02*
X112346071Y-67765719D01*
X112346071Y-67765719D02*
X110207917Y-65706498D01*
X96822121Y-56425176D02*
G75*
G02*
X97764142Y-56581092I-626454J-6708695D01*
G01*
X153802231Y-59896797D02*
X152403995Y-60981256D01*
X89754149Y-101421863D02*
X89665434Y-103862971D01*
X158291303Y-57135531D02*
G75*
G02*
X159431239Y-56674449I5013664J-10755640D01*
G01*
X121925488Y-70593511D02*
G75*
G02*
X125545944Y-69987185I7457079J-33414960D01*
G01*
X92480467Y-58774076D02*
G75*
G02*
X93581660Y-57315054I4190500J-2017695D01*
G01*
X118936567Y-70845697D02*
X117787812Y-70830195D01*
X105167710Y-61196886D02*
X102648411Y-59168136D01*
X101019964Y-58061496D02*
X99720040Y-57339725D01*
X97764142Y-56581092D02*
G75*
G02*
X98686602Y-56869797I-1646775J-6879779D01*
G01*
X152170466Y-129327436D02*
G75*
G02*
X147374843Y-132168087I-19863199J28064965D01*
G01*
X101019964Y-58061496D02*
G75*
G02*
X102648411Y-59168136I-7681497J-13054975D01*
G01*
X168089359Y-103056802D02*
G75*
G02*
X167967703Y-105959421I-21303692J-560969D01*
G01*
X164344913Y-81122482D02*
X164575281Y-79465574D01*
X92450760Y-90043869D02*
X91483122Y-93362971D01*
X91483122Y-93362971D02*
X90606426Y-96479005D01*
X129211678Y-69771706D02*
G75*
G02*
X132811951Y-69949792I169589J-33052965D01*
G01*
X92977047Y-78462971D02*
G75*
G02*
X93063355Y-79148260I-5759880J-1073500D01*
G01*
X107854688Y-63511069D02*
X105167710Y-61196886D01*
X89754149Y-101421863D02*
G75*
G02*
X90051872Y-99057836I25751918J-2042408D01*
G01*
X163375512Y-56881536D02*
G75*
G02*
X164294662Y-57733765I-1898945J-2969835D01*
G01*
X155578951Y-58683198D02*
X153802231Y-59896797D01*
X117127770Y-70753082D02*
G75*
G02*
X116546179Y-70572030I602397J2959711D01*
G01*
X138399247Y-70814416D02*
X137636567Y-70745322D01*
X117787812Y-70830195D02*
G75*
G02*
X117127770Y-70753081I125255J3935424D01*
G01*
X119743827Y-70824377D02*
X118936567Y-70845697D01*
X92548376Y-76162971D02*
X92642978Y-76670553D01*
X92281830Y-74739846D02*
X92442014Y-75593856D01*
X137636567Y-70745322D02*
X136874088Y-70643019D01*
X132811950Y-69949797D02*
G75*
G02*
X136236567Y-70520105I-2953683J-28303774D01*
G01*
X164575281Y-79465574D02*
X164852395Y-77762971D01*
X91357573Y-62852032D02*
X91374930Y-66394836D01*
X164948763Y-88807109D02*
X164506398Y-86757791D01*
X150693745Y-62486580D02*
X147366957Y-65577600D01*
X156475489Y-125727741D02*
G75*
G02*
X152170463Y-129327432I-24465122J24884770D01*
G01*
X117242402Y-134770092D02*
G75*
G02*
X113535891Y-133491642I11326965J38851621D01*
G01*
X115736567Y-70194397D02*
X114521180Y-69511006D01*
X90761833Y-110350137D02*
G75*
G02*
X89952169Y-107265902I15761934J5786166D01*
G01*
X139036567Y-70834665D02*
X138399247Y-70814416D01*
X121925488Y-70593511D02*
G75*
G02*
X121377315Y-70687716I-1227121J5498540D01*
G01*
X140730476Y-70593898D02*
G75*
G02*
X139036567Y-70834673I-1727409J6073827D01*
G01*
X93132052Y-80397346D02*
X93178085Y-81858429D01*
X147366957Y-65577600D02*
X144158868Y-68491024D01*
X125545944Y-69987181D02*
G75*
G02*
X129211678Y-69771702I3841623J-34065290D01*
G01*
X93121446Y-86061919D02*
G75*
G02*
X92911284Y-87985261I-16038379J779348D01*
G01*
X136874088Y-70643019D02*
X136236567Y-70520104D01*
X121377315Y-70687713D02*
X120598313Y-70767833D01*
X89952165Y-107265903D02*
G75*
G02*
X89665435Y-103862971I21748532J3546072D01*
G01*
X164294671Y-57733758D02*
G75*
G02*
X165011238Y-58975048I-4751004J-3570113D01*
G01*
X141936567Y-134364957D02*
G75*
G02*
X137036006Y-135588372I-11229800J34555886D01*
G01*
X167129709Y-96562971D02*
X166860600Y-95505059D01*
X110207917Y-65706498D02*
X107854688Y-63511069D01*
X157022178Y-57796579D02*
X155578951Y-58683198D01*
X152403995Y-60981256D02*
X150693745Y-62486580D01*
X157022178Y-57796579D02*
G75*
G02*
X158291302Y-57135530I8139789J-14078492D01*
G01*
X92642978Y-76670553D02*
X92758867Y-77292346D01*
X116546179Y-70572029D02*
X115736567Y-70194397D01*
X114521180Y-69511006D02*
G75*
G02*
X113532428Y-68807925I5012787J8096335D01*
G01*
M02*
